<svg xmlns="http://www.w3.org/2000/svg" width="68.585" height="68.015" viewBox="0 0 68.585 68.015">
  <path id="linkedIn" d="M34.292,0A34.009,34.009,0,1,1,0,34.008,34.167,34.167,0,0,1,34.292,0ZM23.571,53.12V26.562h-8.9V53.12Zm32.1,0V37.89c0-8.158-4.392-11.953-10.249-11.953A8.853,8.853,0,0,0,37.4,30.322v-3.76H28.5c.118,2.492,0,26.558,0,26.558h8.9V38.288a5.988,5.988,0,0,1,.293-2.155,4.867,4.867,0,0,1,4.567-3.228c3.219,0,4.509,2.436,4.509,6.005V53.12ZM19.18,13.756c-3.046,0-5.036,1.986-5.036,4.589a4.59,4.59,0,0,0,4.918,4.589h.057c3.1,0,5.037-2.041,5.037-4.589a4.611,4.611,0,0,0-4.976-4.589Z" fill="#3e67f2" fill-rule="evenodd"/>
</svg>
