<svg xmlns="http://www.w3.org/2000/svg" width="66.106" height="67.911" viewBox="0 0 66.106 67.911">
  <path id="Twitter" d="M36.777,5.157c-18.255,0-33.054,15.206-33.054,33.957s14.8,33.954,33.054,33.954,33.052-15.2,33.052-33.954S55.032,5.157,36.777,5.157Zm16.65,27.11c.017.367.024.735.024,1.107,0,11.309-8.379,24.347-23.7,24.347a23.134,23.134,0,0,1-12.769-3.843,16.479,16.479,0,0,0,12.332-3.544,8.374,8.374,0,0,1-7.78-5.945,7.926,7.926,0,0,0,1.566.153,8.072,8.072,0,0,0,2.195-.3,8.509,8.509,0,0,1-6.683-8.39c0-.037,0-.073,0-.11a8.134,8.134,0,0,0,3.773,1.071,8.724,8.724,0,0,1-2.579-11.426,23.447,23.447,0,0,0,17.171,8.94,8.787,8.787,0,0,1-.216-1.95,8.446,8.446,0,0,1,8.33-8.556,8.22,8.22,0,0,1,6.079,2.7,16.373,16.373,0,0,0,5.29-2.077A8.545,8.545,0,0,1,52.8,29.181a16.31,16.31,0,0,0,4.785-1.347A17.092,17.092,0,0,1,53.427,32.267Z" transform="translate(-3.723 -5.157)" fill="#32bcef"/>
</svg>
