<svg id="github" xmlns="http://www.w3.org/2000/svg" width="71.996" height="67.943" viewBox="0 0 71.996 67.943">
  <g id="github-2" data-name="github">
    <path id="Path_1" data-name="Path 1" d="M36,67.943c19.881,0,36-15.21,36-33.971S55.88,0,36,0,0,15.21,0,33.971,16.117,67.943,36,67.943Z" fill-rule="evenodd"/>
    <path id="Path_2" data-name="Path 2" d="M29.937,55.257c0-.546-.021-1.992-.033-3.913-6.8,1.389-8.239-3.084-8.239-3.084A6.21,6.21,0,0,0,18.949,44.9c-2.221-1.428.168-1.4.168-1.4a5.113,5.113,0,0,1,3.746,2.371c2.182,3.515,5.724,2.5,7.119,1.912A4.814,4.814,0,0,1,31.535,44.7c-5.431-.58-11.142-2.554-11.142-11.368a8.606,8.606,0,0,1,2.518-6.172,7.815,7.815,0,0,1,.24-6.087s2.054-.618,6.726,2.358a24.578,24.578,0,0,1,12.248,0c4.668-2.977,6.72-2.358,6.72-2.358a7.8,7.8,0,0,1,.243,6.087A8.591,8.591,0,0,1,51.6,33.336c0,8.837-5.719,10.781-11.169,11.35a5.315,5.315,0,0,1,1.661,4.26c0,3.075-.032,5.556-.032,6.31,0,.616.441,1.33,1.683,1.106C53.456,53.315,60.458,44.7,60.458,34.541c0-12.7-10.952-23-24.461-23s-24.459,10.3-24.459,23c0,10.161,7.009,18.783,16.729,21.824C29.49,56.575,29.937,55.865,29.937,55.257Z" fill="#fff" fill-rule="evenodd"/>
  </g>
</svg>
