<svg id="Component_1_1" data-name="Component 1 – 1" xmlns="http://www.w3.org/2000/svg" width="585" height="606" viewBox="0 0 585 606">
  <rect id="Rectangle_19" data-name="Rectangle 19" width="150" height="150" rx="42" transform="translate(290)" fill="#2e2e2e"/>
  <rect id="Rectangle_23" data-name="Rectangle 23" width="155" height="156" rx="38" transform="translate(290 300)" fill="#2e2e2e"/>
  <rect id="Rectangle_21" data-name="Rectangle 21" width="150" height="150" rx="38" transform="translate(435 150)" fill="#6c6c6c" opacity="0.304"/>
  <g id="Ellipse_2" data-name="Ellipse 2" transform="translate(295 150)" fill="#7091fd" stroke="#707070" stroke-width="1">
    <ellipse cx="70" cy="75" rx="70" ry="75" stroke="none"/>
    <ellipse cx="70" cy="75" rx="69.5" ry="74.5" fill="none"/>
  </g>
  <rect id="Rectangle_20" data-name="Rectangle 20" width="150" height="150" rx="32" transform="translate(140 144)" fill="#fff"/>
  <rect id="Rectangle_24" data-name="Rectangle 24" width="150" height="150" rx="39" transform="translate(145 456)" fill="#fff"/>
  <path id="Path_3" data-name="Path 3" d="M34,0h82a34,34,0,0,1,34,34v82a34,34,0,0,1-34,34H34A34,34,0,0,1,0,116V34A34,34,0,0,1,34,0Z" transform="translate(0 300)" fill="#6c6c6c" opacity="0.296"/>
  <g id="Ellipse_4" data-name="Ellipse 4" transform="translate(150 300)" fill="#f6f504" stroke="#707070" stroke-width="1">
    <ellipse cx="72.5" cy="75" rx="72.5" ry="75" stroke="none"/>
    <ellipse cx="72.5" cy="75" rx="72" ry="74.5" fill="none"/>
  </g>
</svg>
